<svg width="43" height="43" viewBox="0 0 43 43" fill="none" xmlns="http://www.w3.org/2000/svg">
<path d="M5.30329 21.5284C3.35865 21.5284 1.76758 19.9373 1.76758 17.9927V9.15339C1.76758 7.20875 3.35865 5.61768 5.30329 5.61768H19.4461C21.3908 5.61768 22.9819 7.20875 22.9819 9.15339V17.9927C22.9819 19.9373 21.3908 21.5284 19.4461 21.5284H15.9104V26.832L10.6069 21.5284H5.30329ZM37.1247 32.1355C39.0694 32.1355 40.6604 30.5445 40.6604 28.5998V19.7605C40.6604 17.8159 39.0694 16.2248 37.1247 16.2248H26.5176V17.9927C26.5176 21.882 23.3354 25.0641 19.4461 25.0641V28.5998C19.4461 30.5445 21.0372 32.1355 22.9819 32.1355H26.5176V37.4391L31.8211 32.1355H37.1247Z" fill="white" fill-opacity="0.5"/>
</svg>
