<svg width="44" height="33" viewBox="0 0 44 33" fill="none" xmlns="http://www.w3.org/2000/svg">
<path d="M43.3712 21.5847C43.3712 22.7514 41.2026 23.5293 38.6726 23.9182C37.0462 20.6123 33.7933 18.0843 29.9983 16.3341C30.3598 15.7507 30.7212 15.3618 31.0826 14.7784H32.5283C38.1305 14.5839 43.3712 18.2788 43.3712 21.5847ZM12.2883 14.5839H10.8426C5.24047 14.5839 -0.000244141 18.2788 -0.000244141 21.5847C-0.000244141 22.7514 2.16833 23.5293 4.69833 23.9182C6.32476 20.6123 9.57761 18.0843 13.3726 16.3341L12.2883 14.5839ZM21.6855 16.5286C25.6612 16.5286 28.914 13.0282 28.914 8.75001C28.914 4.47179 25.6612 0.971436 21.6855 0.971436C17.7098 0.971436 14.4569 4.47179 14.4569 8.75001C14.4569 13.0282 17.7098 16.5286 21.6855 16.5286ZM21.6855 18.4732C14.2762 18.4732 7.22833 23.5293 7.22833 28.1964C7.22833 32.0857 21.6855 32.0857 21.6855 32.0857C21.6855 32.0857 36.1426 32.0857 36.1426 28.1964C36.1426 23.5293 29.0948 18.4732 21.6855 18.4732ZM31.9862 12.6393H32.5283C35.6005 12.6393 37.9498 10.1113 37.9498 6.80536C37.9498 3.49947 35.6005 0.971436 32.5283 0.971436C31.6248 0.971436 30.9019 1.1659 30.179 1.55483C31.6248 3.49947 32.5283 6.02751 32.5283 8.75001C32.5283 10.1113 32.3476 11.4725 31.9862 12.6393ZM10.8426 12.6393H11.3848C11.0233 11.4725 10.8426 10.1113 10.8426 8.75001C10.8426 6.02751 11.7462 3.49947 13.1919 1.55483C12.469 1.1659 11.7462 0.971436 10.8426 0.971436C7.77047 0.971436 5.42118 3.49947 5.42118 6.80536C5.42118 10.1113 7.77047 12.6393 10.8426 12.6393Z" fill="white" fill-opacity="0.5"/>
</svg>
