<svg width="32" height="28" viewBox="0 0 32 28" fill="none" xmlns="http://www.w3.org/2000/svg">
<path fill-rule="evenodd" clip-rule="evenodd" d="M11.5113 25.1656C6.88662 21.622 0.571045 15.7685 0.571045 10.2339C0.571045 0.987595 9.2139 -2.46484 16.2853 4.67574C23.3568 -2.46484 31.9996 0.987594 31.9996 10.2323C31.9996 15.7685 25.6825 21.622 21.0593 25.1656C18.9662 26.7685 17.9196 27.5715 16.2853 27.5715C14.651 27.5715 13.6045 26.77 11.5113 25.1656ZM23.3568 5.96431C23.6693 5.96431 23.9691 6.08848 24.1901 6.3095C24.4112 6.53053 24.5353 6.8303 24.5353 7.14288V9.10717H26.4996C26.8122 9.10717 27.112 9.23134 27.333 9.45236C27.554 9.67339 27.6782 9.97316 27.6782 10.2857C27.6782 10.5983 27.554 10.8981 27.333 11.1191C27.112 11.3401 26.8122 11.4643 26.4996 11.4643H24.5353V13.4286C24.5353 13.7412 24.4112 14.0409 24.1901 14.262C23.9691 14.483 23.6693 14.6072 23.3568 14.6072C23.0442 14.6072 22.7444 14.483 22.5234 14.262C22.3024 14.0409 22.1782 13.7412 22.1782 13.4286V11.4643H20.2139C19.9013 11.4643 19.6016 11.3401 19.3805 11.1191C19.1595 10.8981 19.0353 10.5983 19.0353 10.2857C19.0353 9.97316 19.1595 9.67339 19.3805 9.45236C19.6016 9.23134 19.9013 9.10717 20.2139 9.10717H22.1782V7.14288C22.1782 6.8303 22.3024 6.53053 22.5234 6.3095C22.7444 6.08848 23.0442 5.96431 23.3568 5.96431Z" fill="white" fill-opacity="0.5"/>
</svg>
