<svg width="26" height="31" viewBox="0 0 26 31" fill="none" xmlns="http://www.w3.org/2000/svg">
<path d="M23.8944 0.914307H20.7122C20.2903 0.914307 19.8856 1.08546 19.5872 1.39012C19.2888 1.69478 19.1212 2.10799 19.1212 2.53884V30.1429H25.4855V2.53884C25.4855 2.10799 25.3178 1.69478 25.0195 1.39012C24.7211 1.08546 24.3164 0.914307 23.8944 0.914307ZM14.348 10.6615H11.1658C10.7438 10.6615 10.3391 10.8327 10.0408 11.1373C9.74238 11.442 9.57475 11.8552 9.57475 12.286V30.1429H15.939V12.286C15.939 11.8552 15.7714 11.442 15.473 11.1373C15.1746 10.8327 14.7699 10.6615 14.348 10.6615ZM4.80154 20.4087H1.61939C1.19741 20.4087 0.792718 20.5798 0.494334 20.8845C0.19595 21.1892 0.0283203 21.6024 0.0283203 22.0332V30.1429H6.39261V22.0332C6.39261 21.6024 6.22498 21.1892 5.92659 20.8845C5.62821 20.5798 5.22351 20.4087 4.80154 20.4087Z" fill="white" fill-opacity="0.5"/>
</svg>
